<?xml version="1.0" encoding="UTF-8"?>
<svg id="Layer_1" data-name="Layer 1" xmlns="http://www.w3.org/2000/svg" xmlns:xlink="http://www.w3.org/1999/xlink" viewBox="0 0 1200 1200">
  <defs>
    <style>
      .cls-1 {
        fill: url(#linear-gradient);
      }

      .cls-1, .cls-2, .cls-3, .cls-4 {
        stroke-miterlimit: 10;
      }

      .cls-1, .cls-3, .cls-4 {
        stroke: #fff;
      }

      .cls-5 {
        fill: url(#linear-gradient-8);
      }

      .cls-6 {
        fill: url(#linear-gradient-7);
      }

      .cls-7 {
        fill: url(#linear-gradient-5);
      }

      .cls-8 {
        fill: url(#linear-gradient-4);
      }

      .cls-9 {
        fill: url(#linear-gradient-3);
      }

      .cls-2 {
        fill: #121f45;
        stroke: #2fa9e0;
        stroke-width: 22.52px;
      }

      .cls-3 {
        fill: url(#linear-gradient-2);
      }

      .cls-4 {
        fill: url(#linear-gradient-6);
      }
    </style>
    <linearGradient id="linear-gradient" x1="173.69" y1="512.32" x2="778.32" y2="512.32" gradientUnits="userSpaceOnUse">
      <stop offset="0" stop-color="#2caae2"/>
      <stop offset=".12" stop-color="#2aa3da"/>
      <stop offset=".3" stop-color="#2792c6"/>
      <stop offset=".52" stop-color="#2275a6"/>
      <stop offset=".76" stop-color="#1a4d79"/>
      <stop offset="1" stop-color="#121f45"/>
    </linearGradient>
    <linearGradient id="linear-gradient-2" x1="173.61" y1="817.7" x2="902.4" y2="817.7" xlink:href="#linear-gradient"/>
    <linearGradient id="linear-gradient-3" x1="706.31" y1="599.89" x2="292.15" y2="599.89" gradientUnits="userSpaceOnUse">
      <stop offset="0" stop-color="#2caae2"/>
      <stop offset=".12" stop-color="#2aa3da"/>
      <stop offset=".3" stop-color="#2792c6"/>
      <stop offset=".52" stop-color="#2275a6"/>
      <stop offset=".76" stop-color="#1a4d79"/>
      <stop offset="1" stop-color="#121f45"/>
    </linearGradient>
    <linearGradient id="linear-gradient-4" x1="712.38" y1="663.65" x2="460.83" y2="663.65" xlink:href="#linear-gradient"/>
    <linearGradient id="linear-gradient-5" x1="717.36" y1="716.13" x2="599.64" y2="716.13" xlink:href="#linear-gradient"/>
    <linearGradient id="linear-gradient-6" x1="778.32" x2="902.4" xlink:href="#linear-gradient"/>
    <linearGradient id="linear-gradient-7" x1="827.32" y1="449.73" x2="785.3" y2="449.73" xlink:href="#linear-gradient"/>
    <linearGradient id="linear-gradient-8" x1="850.07" y1="625.69" x2="785.3" y2="625.69" xlink:href="#linear-gradient"/>
  </defs>
  <circle class="cls-2" cx="600" cy="600" r="587.5"/>
  <g>
    <polygon class="cls-1" points="778.32 145.88 778.32 756.62 630.67 786.43 584.35 795.81 501.2 812.56 445.47 823.82 345.22 844.09 276.83 857.94 173.69 878.75 778.32 145.88"/>
    <polygon class="cls-3" points="778.35 756.65 902.4 878.75 173.61 878.75 778.35 756.65"/>
    <g>
      <polygon class="cls-9" points="706.31 360.86 681.42 487.92 652.01 462.95 360.54 825.06 292.15 838.91 618 434.08 584.31 405.45 583.53 404.82 585.4 404.12 706.31 360.86"/>
      <polygon class="cls-8" points="712.38 522.47 689.51 629.69 663.13 611.87 516.54 793.55 498.1 797.28 460.83 804.83 632.94 591.48 602.52 570.94 712.38 522.47"/>
      <polygon class="cls-7" points="717.36 655.44 696.2 747.49 672.31 734.88 646.01 767.41 627.57 771.14 599.64 776.82 645.16 720.49 617.93 706.09 717.36 655.44"/>
    </g>
    <polygon class="cls-4" points="778.32 145.88 902.4 878.75 778.35 756.65 778.32 145.88"/>
    <g>
      <polygon class="cls-6" points="827.32 477.07 785.3 539.83 785.3 389.55 807.49 359.63 827.32 477.07"/>
      <polygon class="cls-5" points="850.07 611.15 785.3 707.8 785.3 615.53 838.59 543.59 850.07 611.15"/>
    </g>
  </g>
</svg>
